name rise44.9368peak50.754fall52.0217.mot
datacolumns 19
datarows 23
range 15.85828000000000 15.89494700000000
endheader
time	ground_force1_vx	ground_force1_vy	ground_force1_vz	ground_force1_px	ground_force1_py	ground_force1_pz	ground_force2_vx	ground_force2_vy	ground_force2_vz	ground_force2_px	ground_force2_py	ground_force2_pz	ground_torque1_x	ground_torque1_y	ground_torque1_z	ground_torque2_x	ground_torque2_y	ground_torque2_z	
15.85828000000000	-8.19873900000000	41.44949000000000	-12.24464900000000	0.30170100000000	0.00000000000000	0.13197000000000	-46.59368700000000	812.65445999999997	-65.56781700000001	0.13307100000000	0.00000000000000	-0.08230900000000	0.00000000000000	-7.31905200000000	0.00000000000000	0.00000000000000	-22.42995800000000	0.00000000000000	
15.85994700000000	-9.06562600000000	48.63356300000000	-13.70218100000000	0.30577700000000	0.00000000000000	0.13340700000000	-46.64226100000000	808.53161599999999	-65.11759800000000	0.13224600000000	0.00000000000000	-0.08223600000000	0.00000000000000	-8.26448600000000	0.00000000000000	0.00000000000000	-22.17896700000000	0.00000000000000	
15.86160800000000	-9.79644200000000	55.92432500000000	-15.00288300000000	0.30960900000000	0.00000000000000	0.13470800000000	-46.69055900000000	804.25020199999994	-64.64069600000001	0.13143100000000	0.00000000000000	-0.08215900000000	0.00000000000000	-9.13217800000000	0.00000000000000	0.00000000000000	-21.92607500000000	0.00000000000000	
15.86328100000000	-10.36863600000000	63.23010100000000	-16.11442100000000	0.31323200000000	0.00000000000000	0.13589300000000	-46.73902100000000	799.81211199999996	-64.13720400000000	0.13062800000000	0.00000000000000	-0.08207900000000	0.00000000000000	-9.90158000000000	0.00000000000000	0.00000000000000	-21.67156300000000	0.00000000000000	
15.86494600000000	-10.76814100000000	70.48161300000000	-17.01592400000000	0.31667400000000	0.00000000000000	0.13698100000000	-46.78805500000000	795.21930599999996	-63.60725600000000	0.12983800000000	0.00000000000000	-0.08199400000000	0.00000000000000	-10.55870900000000	0.00000000000000	0.00000000000000	-21.41571100000000	0.00000000000000	
15.86661200000000	-10.98933200000000	77.63415700000000	-17.69804800000000	0.31996000000000	0.00000000000000	0.13798300000000	-46.83804100000000	790.47380599999997	-63.05102400000000	0.12906200000000	0.00000000000000	-0.08190600000000	0.00000000000000	-11.09634800000000	0.00000000000000	0.00000000000000	-21.15879100000000	0.00000000000000	
15.86827700000000	-11.03430200000000	84.66739900000000	-18.16209500000000	0.32310500000000	0.00000000000000	0.13891100000000	-46.88932100000000	785.57768899999996	-62.46872200000000	0.12830100000000	0.00000000000000	-0.08181200000000	0.00000000000000	-11.51366000000000	0.00000000000000	0.00000000000000	-20.90106800000000	0.00000000000000	
15.86994300000000	-10.91163400000000	91.58318500000000	-18.41840000000000	0.32612600000000	0.00000000000000	0.13977400000000	-46.94220400000000	780.53308100000004	-61.86060300000000	0.12755500000000	0.00000000000000	-0.08171500000000	0.00000000000000	-11.81534100000000	0.00000000000000	0.00000000000000	-20.64280200000000	0.00000000000000	
15.87161100000000	-10.63486000000000	98.40190800000001	-18.48426800000000	0.32903400000000	0.00000000000000	0.14058000000000	-46.99696100000000	775.34215099999994	-61.22696200000000	0.12682700000000	0.00000000000000	-0.08161200000000	0.00000000000000	-12.01047200000000	0.00000000000000	0.00000000000000	-20.38424100000000	0.00000000000000	
15.87327800000000	-10.22077800000000	105.15796500000000	-18.38168800000000	0.33183900000000	0.00000000000000	0.14133400000000	-47.05382100000000	770.00710400000003	-60.56813400000000	0.12611600000000	0.00000000000000	-0.08150500000000	0.00000000000000	-12.11119200000000	0.00000000000000	0.00000000000000	-20.12562800000000	0.00000000000000	
15.87494400000000	-9.68780200000000	111.89485800000000	-18.13506300000000	0.33454900000000	0.00000000000000	0.14204400000000	-47.11297400000000	764.53017699999998	-59.88449400000000	0.12542500000000	0.00000000000000	-0.08139300000000	0.00000000000000	-12.13135700000000	0.00000000000000	0.00000000000000	-19.86719400000000	0.00000000000000	
15.87660900000000	-9.05446600000000	118.66038100000000	-17.76914500000000	0.33717100000000	0.00000000000000	0.14271300000000	-47.17456400000000	758.91363100000001	-59.17646100000000	0.12475400000000	0.00000000000000	-0.08127500000000	0.00000000000000	-12.08527800000000	0.00000000000000	0.00000000000000	-19.60915800000000	0.00000000000000	
15.87827400000000	-8.33818100000000	125.50227400000000	-17.30728100000000	0.33971000000000	0.00000000000000	0.14334400000000	-47.23869100000000	753.15975100000003	-58.44449000000000	0.12410400000000	0.00000000000000	-0.08115300000000	0.00000000000000	-11.98663900000000	0.00000000000000	0.00000000000000	-19.35172900000000	0.00000000000000	
15.87993900000000	-7.55429100000000	132.46460600000000	-16.77008400000000	0.34217100000000	0.00000000000000	0.14394300000000	-47.30540600000000	747.27083200000004	-57.68908200000000	0.12347600000000	0.00000000000000	-0.08102500000000	0.00000000000000	-11.84764200000000	0.00000000000000	0.00000000000000	-19.09510400000000	0.00000000000000	
15.88160800000000	-6.71545600000000	139.58502300000001	-16.17453200000000	0.34455800000000	0.00000000000000	0.14451100000000	-47.37471100000000	741.24918600000001	-56.91077400000000	0.12287100000000	0.00000000000000	-0.08089200000000	0.00000000000000	-11.67840800000000	0.00000000000000	0.00000000000000	-18.83946700000000	0.00000000000000	
15.88328000000000	-5.83134900000000	146.89293499999999	-15.53350500000000	0.34687400000000	0.00000000000000	0.14505100000000	-47.44656000000000	735.09712600000000	-56.11014400000000	0.12229000000000	0.00000000000000	-0.08075300000000	0.00000000000000	-11.48664400000000	0.00000000000000	0.00000000000000	-18.58498700000000	0.00000000000000	
15.88494300000000	-4.90863300000000	154.40860799999999	-14.85570900000000	0.34912100000000	0.00000000000000	0.14556500000000	-47.52085100000000	728.81697199999996	-55.28780900000000	0.12173300000000	0.00000000000000	-0.08060800000000	0.00000000000000	-11.27754600000000	0.00000000000000	0.00000000000000	-18.33182000000000	0.00000000000000	
15.88660700000000	-3.95117400000000	162.14304500000000	-14.14593200000000	0.35130200000000	0.00000000000000	0.14605600000000	-47.59743100000000	722.41103999999996	-54.44442500000000	0.12120300000000	0.00000000000000	-0.08045800000000	0.00000000000000	-11.05390500000000	0.00000000000000	0.00000000000000	-18.08010700000000	0.00000000000000	
15.88827700000000	-2.96041700000000	170.09855800000000	-13.40553600000000	0.35341800000000	0.00000000000000	0.14652500000000	-47.67609300000000	715.88164500000005	-53.58068300000000	0.12069800000000	0.00000000000000	-0.08030200000000	0.00000000000000	-10.81638400000000	0.00000000000000	0.00000000000000	-17.82997300000000	0.00000000000000	
15.88994200000000	-1.93589200000000	178.26981699999999	-12.63312300000000	0.35547000000000	0.00000000000000	0.14697400000000	-47.75657300000000	709.23109699999998	-52.69731500000000	0.12022100000000	0.00000000000000	-0.08014000000000	0.00000000000000	-10.56389200000000	0.00000000000000	0.00000000000000	-17.58152900000000	0.00000000000000	
15.89161000000000	-0.87575900000000	186.64525000000000	-11.82528400000000	0.35746000000000	0.00000000000000	0.14740400000000	-47.83855300000000	702.46169899999995	-51.79508300000000	0.11977100000000	0.00000000000000	-0.07997200000000	0.00000000000000	-10.29404000000000	0.00000000000000	0.00000000000000	-17.33486800000000	0.00000000000000	
15.89327300000000	0.22263300000000	195.20858999999999	-10.97735900000000	0.35938900000000	0.00000000000000	0.14781600000000	-47.92165700000000	695.57574899999997	-50.87478700000000	0.11935000000000	0.00000000000000	-0.07979700000000	0.00000000000000	-10.00359500000000	0.00000000000000	0.00000000000000	-17.09006900000000	0.00000000000000	
15.89494700000000	1.36223000000000	203.94045600000001	-10.08415500000000	0.36125700000000	0.00000000000000	0.14821100000000	-48.00545400000000	688.57553900000005	-49.93725900000000	0.11895800000000	0.00000000000000	-0.07961700000000	0.00000000000000	-9.68893600000000	0.00000000000000	0.00000000000000	-16.84719200000000	0.00000000000000	
